<?xml version="1.0" encoding="UTF-8"?>
<svg width="2.1689mm" height="2.8051mm" version="1.1" viewBox="0 0 2.1689 2.8051" xmlns="http://www.w3.org/2000/svg">
<g transform="translate(-44.063 -123.55)">
<path d="m45.784 124.7c0 0.14393-0.0102 0.2817-0.04286 0.4064 9e-3 0.0685 0.35487 0.38184 0.35487 0.38184s-0.44175-0.0904-0.49933-0.0469c-0.07207 0.0975-0.15981 0.17568-0.27622 0.23495 0.11536 0.0191 0.21378 0.0476 0.29528 0.0857 0.08255 0.0371 0.1524 0.0905 0.20955 0.16033 0.05821 0.0709 0.10742 0.16564 0.14764 0.28417l-0.42545 0.14446c-0.04657-0.11007-0.09684-0.20267-0.15081-0.27781-0.05397-0.0752-0.12171-0.13177-0.2032-0.16987-0.08043-0.0381-0.18468-0.0571-0.31274-0.0571-0.18309 0-0.33549-0.046-0.4572-0.13811-0.12065-0.0921-0.21114-0.22331-0.27146-0.3937-0.05927-0.17145-0.0889-0.37623-0.0889-0.61436 0-0.23283 0.03122-0.4355 0.09366-0.60801 0.0635-0.17251 0.15875-0.30639 0.28575-0.40164 0.12806-0.0963 0.28787-0.14446 0.47942-0.14446 0.19262 0 0.34455 0.0445 0.47942 0.1397 0.06408 0.0829 0.5469 0.24493 0.83069 0.51401-0.22521-0.0909-0.48659-0.12408-0.54335-0.11558 0.07046 0.17187 0.09525 0.37782 0.09525 0.61595zm-0.54292 0c0-0.26882-0.0217-0.46461-0.06509-0.58738s-0.12806-0.18415-0.254-0.18415c-0.12382 0-0.20849 0.0619-0.254 0.18574-0.02458 0.0679 0.26141 0.58351 0.26141 0.58351s-0.32809-0.11729-0.32809 2e-3c0 0.26881 0.02275 0.46513 0.06826 0.58896 0.04657 0.12383 0.1307 0.18574 0.25241 0.18574 0.127 0 0.21167-0.0619 0.254-0.18574 0.04339-0.12488 0.06509-0.3212 0.06509-0.58896z" fill="#f97316" stroke-width=".26458" style="font-variation-settings:'wght' 700"/>
</g>
</svg>
