<?xml version="1.0" encoding="UTF-8" standalone="no"?>
<!-- Created with Inkscape (http://www.inkscape.org/) -->

<svg
   width="13.434281"
   height="8.3476152"
   viewBox="0 0 3.5544865 2.2086396"
   version="1.1"
   id="svg1"
   inkscape:version="1.3.2 (091e20e, 2023-11-25, custom)"
   sodipodi:docname="brand-logo.svg"
   xml:space="preserve"
   inkscape:export-filename="brand-logo.png"
   inkscape:export-xdpi="96"
   inkscape:export-ydpi="96"
   xmlns:inkscape="http://www.inkscape.org/namespaces/inkscape"
   xmlns:sodipodi="http://sodipodi.sourceforge.net/DTD/sodipodi-0.dtd"
   xmlns="http://www.w3.org/2000/svg"
   xmlns:svg="http://www.w3.org/2000/svg"><sodipodi:namedview
     id="namedview1"
     pagecolor="#ffffff"
     bordercolor="#000000"
     borderopacity="0.25"
     inkscape:showpageshadow="2"
     inkscape:pageopacity="0.0"
     inkscape:pagecheckerboard="false"
     inkscape:deskcolor="#d1d1d1"
     inkscape:document-units="px"
     inkscape:zoom="45.254834"
     inkscape:cx="8.6178639"
     inkscape:cy="2.0881747"
     inkscape:window-width="1920"
     inkscape:window-height="1009"
     inkscape:window-x="1912"
     inkscape:window-y="-8"
     inkscape:window-maximized="1"
     inkscape:current-layer="layer1" /><defs
     id="defs1" /><g
     inkscape:label="Camada 1"
     inkscape:groupmode="layer"
     id="layer1"
     transform="translate(-43.161053,-124.02722)"><path
       id="path4"
       style="font-size:3.175px;font-family:'Fira Code';-inkscape-font-specification:'Fira Code, @wght=700';font-variation-settings:'wght' 700;fill:#f97316;stroke-width:0.264583"
       d="m 45.216181,124.02722 c -0.111879,0.0195 -0.514331,0.0175 -0.763294,0.15771 -0.203151,0.11444 -0.356243,0.19877 -0.552236,0.24512 -0.385863,0.0912 -0.739598,-0.0849 -0.739598,-0.0849 0,0 0.28965,0.18215 0.454164,0.20411 0.321496,0.0429 0.617483,-0.0412 0.961092,-0.15206 0.140931,-0.056 0.422854,-0.0926 0.454026,0.0283 0.03359,0.13033 -0.33889,0.12417 -0.473473,0.1254 -0.251164,0.002 -0.477832,0.0695 -0.741144,0.26342 0.188568,-0.0555 0.930321,-0.13304 0.782158,0.0773 -0.217372,0.30862 -0.591569,-0.10162 -1.082031,0.0258 0,0 0.234595,-0.0301 0.564182,0.20565 0.194879,0.13937 0.345202,0.13845 0.524048,0.0614 0.394087,-0.1699 0.548856,0.0474 0.47366,0.15431 -0.07005,0.0996 -0.324807,-0.006 -0.428973,-0.0585 -0.09852,-0.0499 -0.191368,-0.0318 -0.382612,0.0621 -0.134345,0.066 -0.304033,0.0678 -0.304033,0.0678 0,0 0.107711,0.10024 0.246009,0.0929 0.07077,-0.004 0.147503,-0.0378 0.186475,-0.0614 0.06463,-0.0391 0.249505,-0.0182 0.180349,0.0759 -0.07286,0.0992 -0.336734,0.0884 -0.336734,0.0884 0.115013,0.0404 0.203812,0.12647 0.418528,0.0488 0.242045,-0.088 0.298609,-0.0193 0.291097,0.0812 -0.006,0.0804 -0.07815,0.14601 -0.156024,0.1066 -0.09915,-0.0502 -0.17788,-0.0765 -0.297011,-0.0466 -0.158843,0.0398 -0.310495,0.12667 -0.310495,0.12667 0,0 0.128358,-0.0511 0.334554,-0.007 0.163278,0.0352 0.267786,0.15078 0.341313,0.18995 0.158061,0.0843 0.157401,0.12017 0.363305,0.12826 v 0.002 l 0.267837,-0.008 v -2.20042 z m 0.892678,1e-4 -0.601514,1.02577 0.604615,1.17409 h 0.60358 l -0.682645,-1.21287 0.622183,-0.98699 z"
       sodipodi:nodetypes="csscassscscssssscssscsssscsscccccccccccc" /></g></svg>
